<svg id="Layer_1" data-name="Layer 1" xmlns="http://www.w3.org/2000/svg" viewBox="0 0 91 35"><defs><style>.cls-1{fill:#f9f9f9;}</style></defs><title>liane</title><path class="cls-1" d="M1.09,34.56V33.1q3.31,0,3.31-2.24V6.17Q4.4,3.78.65,3.78V2.47L8.49,1v30q0,2,3.7,2v1.46Z"/><path class="cls-1" d="M14.14,34.56V33.1q3.36,0,3.36-3V20.44q0-3.85-3-3.85V15.27l7.06-1.51V30.32q0,2.78,3.7,2.78v1.46ZM19.2,8.41q-2.58,0-2.58-3A2.45,2.45,0,0,1,19.4,2.66Q22,2.66,22,5.44,22,8.41,19.2,8.41Z"/><path class="cls-1" d="M47.15,32.51q-.73,2.58-3.9,2.58-2.78,0-3.51-3.17a11,11,0,0,1-7.45,3.17A5.56,5.56,0,0,1,28.5,34a4.47,4.47,0,0,1-1.22-3.48q0-6,12.08-8.18v-1.9q0-4.77-3.72-4.77a6.7,6.7,0,0,0-2.79.54,2,2,0,0,0-1.18,2,1.18,1.18,0,0,1,.44.61,2.54,2.54,0,0,1,.15.85q0,1.85-2.24,1.85A2,2,0,0,1,28.6,21,2.14,2.14,0,0,1,28,19.36a3.79,3.79,0,0,1,.68-2.14,6.63,6.63,0,0,1,1.78-1.78A9.7,9.7,0,0,1,33,14.23a9.6,9.6,0,0,1,3-.46q4.05,0,5.76,1.51t1.71,5V30.86q0,1.8,1.66,1.8a2.52,2.52,0,0,0,1.51-.54ZM39.55,24a20.47,20.47,0,0,0-3,.51,10.21,10.21,0,0,0-2.62,1,5.61,5.61,0,0,0-1.86,1.68,4.34,4.34,0,0,0-.71,2.53q0,3.17,3.09,3.17a5.48,5.48,0,0,0,2.28-.41,4,4,0,0,0,1.47-1.1,5.38,5.38,0,0,0,.88-1.51,9,9,0,0,0,.47-1.66Z"/><path class="cls-1" d="M60.93,34.56V33.1q3.16,0,3.17-2v-8q0-6.67-4.77-6.67t-4.87,5.94v8.72q0,2,3.51,2v1.46H47.64V33.1q2.73,0,2.73-2.24V18.44q0-1.7-2.63-1.7h-.68V15.47l7-1.7a1.54,1.54,0,0,1,.19,1v2.92a7.88,7.88,0,0,1,1-1.44A6.06,6.06,0,0,1,56.77,15a8.73,8.73,0,0,1,2.12-.88,10.33,10.33,0,0,1,2.78-.34,6.54,6.54,0,0,1,2,.37A6.94,6.94,0,0,1,65.8,15.3a6.52,6.52,0,0,1,1.7,2.07,6.4,6.4,0,0,1,.68,3.07V31.2q0,1.9,3.17,1.9v1.46Z"/><path class="cls-1" d="M90,29.06a9.94,9.94,0,0,1-3.41,4,8.94,8.94,0,0,1-5.06,1.42,11,11,0,0,1-4.29-.78,8.86,8.86,0,0,1-3.09-2.11,8.76,8.76,0,0,1-1.87-3.17,11.89,11.89,0,0,1-.63-3.9,11.5,11.5,0,0,1,.68-3.95,10.91,10.91,0,0,1,1.92-3.35,9.31,9.31,0,0,1,3-2.34,8.62,8.62,0,0,1,3.9-.87,13.53,13.53,0,0,1,2.75.3A7.14,7.14,0,0,1,88.78,18,11.22,11.22,0,0,1,90,22.27a3.31,3.31,0,0,1-.15,1h-13q-.93,0-.93.69a9.86,9.86,0,0,0,.49,3.12,8.25,8.25,0,0,0,1.36,2.57A6.17,6.17,0,0,0,80,31.38a6.34,6.34,0,0,0,2.82.62,5.76,5.76,0,0,0,3.53-1.1,13,13,0,0,0,2.61-2.57ZM83.38,21.9a1.74,1.74,0,0,0,2-1.93,5.34,5.34,0,0,0-1.24-3.05,3.93,3.93,0,0,0-3.19-1.31,4.36,4.36,0,0,0-2,.48,5,5,0,0,0-1.58,1.29,5.68,5.68,0,0,0-1,1.84A6.77,6.77,0,0,0,76,21.35q0,.55,1.07.55Z"/></svg>