<svg id="Layer_1" data-name="Layer 1" xmlns="http://www.w3.org/2000/svg" viewBox="0 0 350 350"><defs><style>.cls-1,.cls-2,.cls-3,.cls-4,.cls-5,.cls-6{fill:none;stroke:#002d56;stroke-miterlimit:10;}.cls-1{stroke-width:4px;}.cls-2,.cls-3,.cls-4,.cls-5,.cls-6{stroke-width:2px;}.cls-3{stroke-dasharray:4.02 4.02;}.cls-4{stroke-dasharray:3.97 3.97;}.cls-5{stroke-dasharray:3.98 3.98;}.cls-6{stroke-dasharray:3.99 3.99;}</style></defs><title>services-brand</title><polygon class="cls-1" points="268.86 303.81 316.12 303.81 202.28 38.29 148.59 38.29 34.76 303.81 82.01 303.81 174.5 77.26 268.86 303.81"/><line class="cls-2" x1="187.49" y1="4.18" x2="188.28" y2="6.02"/><line class="cls-3" x1="189.86" y1="9.71" x2="331.43" y2="340.31"/><line class="cls-2" x1="332.22" y1="342.16" x2="333.01" y2="344"/><line class="cls-2" x1="145.9" y1="6" x2="146.66" y2="7.85"/><line class="cls-4" x1="148.15" y1="11.53" x2="282.13" y2="340.31"/><line class="cls-2" x1="282.88" y1="342.15" x2="283.64" y2="344"/><line class="cls-2" x1="162.81" y1="4.18" x2="162.02" y2="6.02"/><line class="cls-3" x1="160.44" y1="9.71" x2="18.87" y2="340.31"/><line class="cls-2" x1="18.08" y1="342.16" x2="17.29" y2="344"/><line class="cls-2" x1="203.08" y1="4.18" x2="202.34" y2="6.04"/><line class="cls-5" x1="200.86" y1="9.73" x2="68.15" y2="340.3"/><line class="cls-2" x1="67.41" y1="342.14" x2="66.66" y2="344"/><line class="cls-2" x1="3" y1="305.02" x2="5" y2="305.02"/><line class="cls-6" x1="8.99" y1="305.02" x2="342.01" y2="305.02"/><line class="cls-2" x1="344" y1="305.02" x2="346" y2="305.02"/><line class="cls-2" x1="3" y1="37.07" x2="5" y2="37.07"/><line class="cls-6" x1="8.99" y1="37.07" x2="342.01" y2="37.07"/><line class="cls-2" x1="344" y1="37.07" x2="346" y2="37.07"/></svg>