<svg id="Layer_1" data-name="Layer 1" xmlns="http://www.w3.org/2000/svg" viewBox="0 0 350 350"><defs><style>.cls-1{fill:none;}.cls-1,.cls-2{stroke:#002d56;stroke-miterlimit:10;stroke-width:2px;}.cls-2{fill:#fff;}</style></defs><title>services-promo</title><rect class="cls-1" x="16" y="53" width="236" height="286"/><rect class="cls-1" x="33" y="75" width="200" height="108"/><rect class="cls-1" x="33" y="201" width="58" height="58"/><line class="cls-1" x1="32" y1="279" x2="234" y2="279"/><line class="cls-1" x1="32" y1="299" x2="234" y2="299"/><line class="cls-1" x1="32" y1="320" x2="234" y2="320"/><line class="cls-1" x1="33" y1="201" x2="91" y2="258"/><line class="cls-1" x1="91" y1="201" x2="33" y2="258"/><rect class="cls-1" x="105" y="201" width="58" height="58"/><line class="cls-1" x1="105" y1="201" x2="163" y2="258"/><line class="cls-1" x1="163" y1="201" x2="105" y2="258"/><rect class="cls-2" x="172" y="7" width="152" height="264"/><rect class="cls-1" x="185" y="24" width="125" height="77"/><line class="cls-1" x1="247" y1="118" x2="310" y2="118"/><line class="cls-1" x1="247" y1="137" x2="310" y2="137"/><line class="cls-1" x1="247" y1="155" x2="310" y2="155"/><line class="cls-1" x1="247" y1="196" x2="310" y2="196"/><line class="cls-1" x1="247" y1="215" x2="310" y2="215"/><line class="cls-1" x1="247" y1="234" x2="310" y2="234"/><rect class="cls-1" x="184" y="115" width="58" height="58"/><line class="cls-1" x1="184" y1="115" x2="242" y2="172"/><line class="cls-1" x1="242" y1="115" x2="184" y2="172"/><rect class="cls-1" x="184" y="195" width="58" height="58"/><line class="cls-1" x1="184" y1="195" x2="242" y2="252"/><line class="cls-1" x1="242" y1="195" x2="184" y2="252"/></svg>