<?xml version="1.0" encoding="utf-8"?>
<!-- Generator: Adobe Illustrator 21.1.0, SVG Export Plug-In . SVG Version: 6.00 Build 0)  -->
<svg version="1.1" id="Layer_1" xmlns="http://www.w3.org/2000/svg" xmlns:xlink="http://www.w3.org/1999/xlink" x="0px" y="0px"
	 viewBox="0 0 50 50" style="enable-background:new 0 0 50 50;" xml:space="preserve">
<style type="text/css">
	.st0{fill-rule:evenodd;clip-rule:evenodd;fill:#444444;}
	.st1{fill:#444444;}
</style>
<g>
	<g>
		<path class="st0" d="M-12.8-4h-40.5C-55.9-4-58-1.9-58,0.8v40.5c0,2.6,2.1,4.8,4.8,4.8h40.5c2.6,0,4.8-2.1,4.8-4.8V0.8
			C-8-1.9-10.1-4-12.8-4z M-45.3,5.5c2.2,0,3.5,1.6,3.5,3.6c0,2-1.4,3.6-3.6,3.6h0c-2.1,0-3.5-1.6-3.5-3.6
			C-48.8,7.1-47.4,5.5-45.3,5.5z M-41.3,36.5h-7.1V15h7.1V36.5z M-15.2,36.5h-7V25.3c0-2.8-0.8-4.8-3.4-4.8c-1.9,0-3.1,1.3-3.6,2.6
			c-0.2,0.4-0.2,1.1-0.2,1.7v11.7h-7.3c0,0,0.1-19.6,0-21.6h7.3v3c0.9-1.4,2.6-3.5,6.4-3.5c4.6,0,7.9,3.6,7.9,10.1V36.5z M-29.4,18
			L-29.4,18C-29.4,17.9-29.4,18-29.4,18L-29.4,18z"/>
	</g>
</g>
<path class="st1" d="M43.8,0H6.2C2.8,0,0,2.8,0,6.2v37.5C0,47.2,2.8,50,6.2,50h37.5c3.5,0,6.2-2.8,6.2-6.2V6.2C50,2.8,47.2,0,43.8,0
	z M25,18.8c5.8,0,6.2,6.2,6.2,6.2s0.2,6.2-6.2,6.2c-6.4,0-6.2-6.2-6.2-6.2S19.2,18.8,25,18.8z M43.8,40.6c0,1.7-1.4,3.1-3.1,3.1H9.4
	c-1.7,0-3.1-1.4-3.1-3.1V25c0-1.7,1.4-3.1,3.1-3.1h3.6c-0.3,1-0.4,2-0.4,3.1c0,6.9,5.6,12.5,12.5,12.5S37.5,31.9,37.5,25
	c0-1.1-0.2-2.1-0.4-3.1h3.6c1.7,0,3.1,1.4,3.1,3.1V40.6z M43.8,12.5c0,1.7-1.4,3.1-3.1,3.1h-3.1c-1.7,0-3.1-1.4-3.1-3.1V9.4
	c0-1.7,1.4-3.1,3.1-3.1h3.1c1.7,0,3.1,1.4,3.1,3.1V12.5z"/>
</svg>
