<?xml version="1.0" encoding="utf-8"?>
<!-- Generator: Adobe Illustrator 21.1.0, SVG Export Plug-In . SVG Version: 6.00 Build 0)  -->
<svg version="1.1" id="Layer_1" xmlns="http://www.w3.org/2000/svg" xmlns:xlink="http://www.w3.org/1999/xlink" x="0px" y="0px"
	 viewBox="0 0 50 50" style="enable-background:new 0 0 50 50;" xml:space="preserve">
<style type="text/css">
	.st0{fill-rule:evenodd;clip-rule:evenodd;fill:#444444;}
</style>
<g>
	<g>
		<path class="st0" d="M45.2,0H4.8C2.1,0,0,2.1,0,4.8v40.5C0,47.9,2.1,50,4.8,50h40.5c2.6,0,4.8-2.1,4.8-4.8V4.8
			C50,2.1,47.9,0,45.2,0z M12.7,9.5c2.2,0,3.5,1.6,3.5,3.6c0,2-1.4,3.6-3.6,3.6h0c-2.1,0-3.5-1.6-3.5-3.6
			C9.2,11.1,10.6,9.5,12.7,9.5z M16.7,40.5H9.5V19h7.1V40.5z M42.8,40.5h-7V29.3c0-2.8-0.8-4.8-3.4-4.8c-1.9,0-3.1,1.3-3.6,2.6
			c-0.2,0.4-0.2,1.1-0.2,1.7v11.7h-7.3c0,0,0.1-19.6,0-21.6h7.3v3c0.9-1.4,2.6-3.5,6.4-3.5c4.6,0,7.9,3.6,7.9,10.1V40.5z M28.6,22
			L28.6,22C28.6,21.9,28.6,22,28.6,22L28.6,22z"/>
	</g>
</g>
<path d="M99.8,0H62.2C58.8,0,56,2.8,56,6.2v37.5c0,3.5,2.8,6.2,6.2,6.2h37.5c3.4,0,6.2-2.8,6.2-6.2V6.2C106,2.8,103.2,0,99.8,0z
	 M81,18.8c5.8,0,6.2,6.2,6.2,6.2s0.2,6.2-6.2,6.2c-6.4,0-6.2-6.2-6.2-6.2S75.2,18.8,81,18.8z M99.8,40.6c0,1.7-1.4,3.1-3.1,3.1H65.4
	c-1.7,0-3.1-1.4-3.1-3.1V25c0-1.7,1.4-3.1,3.1-3.1h3.6c-0.3,1-0.4,2-0.4,3.1c0,6.9,5.6,12.5,12.5,12.5S93.5,31.9,93.5,25
	c0-1.1-0.2-2.1-0.4-3.1h3.6c1.7,0,3.1,1.4,3.1,3.1V40.6z M99.8,12.5c0,1.7-1.4,3.1-3.1,3.1h-3.1c-1.7,0-3.1-1.4-3.1-3.1V9.4
	c0-1.7,1.4-3.1,3.1-3.1h3.1c1.7,0,3.1,1.4,3.1,3.1V12.5z"/>
</svg>
